<?xml version="1.0" standalone="no"?>
<!DOCTYPE svg PUBLIC "-//W3C//DTD SVG 20010904//EN"
 "http://www.w3.org/TR/2001/REC-SVG-20010904/DTD/svg10.dtd">
<svg version="1.0" xmlns="http://www.w3.org/2000/svg"
 width="256.000000pt" height="256.000000pt" viewBox="0 0 256.000000 256.000000"
 preserveAspectRatio="xMidYMid meet">

<g transform="translate(0.000000,256.000000) scale(0.100000,-0.100000)"
fill="#000000" stroke="none">
<path d="M0 1280 l0 -1280 1280 0 1280 0 0 1280 0 1280 -1280 0 -1280 0 0
-1280z m710 943 c0 -4 -46 -54 -102 -110 l-102 -102 -37 -303 c-21 -167 -40
-312 -42 -323 -2 -13 -31 36 -80 132 l-77 153 0 280 0 280 220 0 c121 0 220
-3 220 -7z m569 -61 l66 -69 95 -18 c65 -12 149 -40 265 -88 94 -38 176 -75
183 -81 23 -22 232 -370 232 -388 0 -10 -15 -80 -34 -157 l-35 -138 79 -184
c44 -101 84 -192 90 -201 5 -10 10 -52 10 -93 l0 -76 -95 107 c-88 98 -95 110
-95 148 0 31 -20 84 -76 206 l-77 163 31 63 31 63 -47 45 -47 46 27 51 c31 58
32 53 -38 132 -41 47 -42 47 -105 47 -35 0 -69 4 -75 8 -6 4 -16 23 -23 43
-11 34 -17 38 -121 77 -109 41 -109 41 -192 32 -125 -15 -124 -15 -104 15 33
51 32 52 -120 70 l-52 7 -39 -74 -39 -73 -79 -10 -80 -10 -87 -108 c-49 -60
-88 -116 -88 -125 1 -9 7 -44 15 -77 8 -33 15 -67 15 -75 0 -9 -27 -58 -60
-110 l-59 -95 26 -44 c25 -43 25 -46 13 -115 -7 -39 -15 -75 -17 -79 -3 -5
-32 17 -65 50 -48 47 -60 55 -68 43 -5 -8 -10 -71 -10 -139 l0 -123 52 -87
c28 -47 53 -89 55 -93 2 -5 -57 -8 -131 -8 l-136 0 0 223 0 222 88 112 c80
103 95 130 184 333 95 214 98 221 92 278 l-6 57 66 35 c36 19 66 40 67 45 0 6
0 31 -1 56 -1 26 4 50 10 54 6 4 55 11 110 17 l99 11 73 74 c68 69 75 73 116
73 42 0 49 -4 111 -68z m951 -67 c0 -74 -2 -135 -5 -135 -2 0 -62 26 -132 57
-119 53 -135 58 -222 63 l-95 5 -47 65 c-26 36 -48 68 -48 73 -1 4 123 7 274
7 l275 0 0 -135z m-1040 -710 l0 -55 -116 0 -116 0 -34 -34 c-35 -35 -45 -78
-21 -93 6 -4 62 -10 122 -13 l110 -5 3 -52 3 -51 -83 -6 c-46 -3 -101 -7 -123
-9 -38 -2 -40 -4 -43 -37 -2 -28 4 -42 32 -72 l35 -38 120 0 121 0 0 -59 0
-60 -142 6 -143 6 -67 60 -68 59 0 191 0 191 62 63 62 63 143 0 143 0 0 -55z
m373 23 c241 -122 227 -456 -23 -572 -48 -23 -68 -26 -162 -26 l-108 0 0 316
0 316 128 -7 c95 -5 137 -12 165 -27z m663 -275 c-3 -3 -32 16 -66 42 -43 33
-60 52 -55 63 3 8 31 50 63 93 l57 77 3 -136 c1 -74 0 -137 -2 -139z m-363
-215 c-8 -52 -10 -95 -5 -100 5 -5 32 0 61 12 28 11 54 20 56 20 3 0 -7 -22
-23 -50 l-27 -50 -67 0 c-36 0 -74 -3 -83 -6 -16 -6 -16 -5 -2 22 8 17 21 68
28 114 10 63 19 91 36 108 12 12 26 22 31 22 5 0 3 -41 -5 -92z m-1183 -13 c0
-3 -9 -19 -20 -37 -30 -50 -27 -68 14 -68 31 0 34 -3 55 -56 12 -32 20 -58 19
-60 -2 -1 -37 23 -78 53 -41 30 -83 60 -92 67 -17 12 -17 17 -1 88 l17 76 43
-30 c24 -16 43 -31 43 -33z m-196 -400 c4 -11 -2 -15 -24 -15 -24 0 -30 -4
-30 -21 0 -17 5 -20 32 -17 27 3 33 8 41 37 l8 34 55 -6 c52 -5 84 -20 84 -37
0 -16 -33 -19 -53 -5 -29 20 -34 19 -52 -9 -30 -46 24 -103 62 -65 6 6 21 8
33 4 21 -7 20 -8 -11 -31 -18 -13 -45 -24 -60 -24 -34 0 -71 30 -76 60 -4 29
-14 40 -20 23 -3 -7 -16 -13 -30 -13 -38 0 -26 -34 14 -38 23 -2 30 -7 26 -18
-3 -10 -21 -14 -59 -14 l-54 0 0 43 c0 24 5 48 12 55 9 9 9 18 0 37 -7 14 -12
28 -12 30 0 3 24 5 54 5 39 0 55 -4 60 -15z m226 -20 c0 -32 2 -35 30 -35 28
0 30 3 30 35 0 28 4 35 19 35 15 0 20 -10 25 -50 10 -72 -1 -120 -26 -120 -17
0 -20 5 -16 35 4 34 3 35 -29 35 -29 0 -33 -4 -39 -35 -4 -24 -12 -35 -24 -35
-16 0 -18 11 -19 85 -1 84 -1 85 24 85 22 0 25 -4 25 -35z m263 12 c12 -13 28
-32 35 -43 11 -16 11 -13 6 24 l-6 42 56 0 c43 0 56 -3 56 -15 0 -10 -10 -15
-29 -15 -24 0 -28 -3 -24 -20 3 -13 14 -20 29 -20 17 0 22 -4 18 -15 -4 -9
-19 -15 -36 -15 -23 0 -29 -4 -26 -17 4 -25 51 -28 84 -6 20 13 29 14 32 5 5
-16 32 -15 32 1 0 8 -11 19 -25 25 -34 16 -52 56 -35 77 14 16 67 20 89 6 21
-13 2 -33 -25 -27 -36 10 -29 -12 11 -31 30 -14 35 -22 35 -50 0 -47 -34 -62
-90 -40 -34 13 -40 13 -40 1 0 -10 -14 -14 -55 -14 -52 0 -61 5 -56 33 2 13
-20 7 -49 -14 -22 -17 -36 -20 -63 -15 -44 8 -54 20 -61 76 -9 64 13 88 82 89
22 1 40 -7 55 -22z m480 -1 l27 -25 6 25 c6 22 11 24 60 24 41 0 54 -4 54 -15
0 -10 -11 -15 -35 -15 -28 0 -35 -4 -35 -20 0 -16 7 -20 35 -20 24 0 35 -5 35
-15 0 -10 -10 -15 -31 -15 -23 0 -30 -4 -28 -17 4 -40 -2 -53 -21 -53 -16 0
-20 7 -20 31 l0 30 -45 -32 c-36 -26 -50 -30 -76 -25 -41 8 -59 23 -59 50 0
12 -5 27 -11 33 -12 12 -1 39 27 67 24 25 86 20 117 -8z m326 -13 c22 -23 31
-38 24 -40 -7 -3 -13 -15 -13 -28 0 -32 -55 -65 -108 -65 l-40 0 1 85 1 85 49
0 c43 0 53 -4 86 -37z m385 16 c24 -34 -5 -78 -51 -79 -19 0 -23 -6 -23 -34
l0 -33 -137 -2 c-91 -1 -139 2 -143 9 -4 6 -3 30 1 53 4 23 6 57 2 75 l-5 32
170 0 c163 0 172 -1 186 -21z"/>
<path d="M1380 1142 c0 -197 3 -222 26 -222 47 0 120 26 151 53 140 123 65
331 -128 354 l-49 6 0 -191z"/>
<path d="M886 471 c-16 -18 -16 -21 -1 -50 16 -33 50 -42 73 -19 18 18 15 32
-13 62 -29 31 -36 32 -59 7z"/>
<path d="M1367 479 c-31 -18 -4 -89 34 -89 18 0 49 25 49 39 0 11 -47 61 -57
61 -4 0 -16 -5 -26 -11z"/>
<path d="M1480 450 c0 -5 5 -10 11 -10 5 0 7 5 4 10 -3 6 -8 10 -11 10 -2 0
-4 -4 -4 -10z"/>
<path d="M1692 435 c-1 -32 2 -55 8 -55 15 0 51 39 45 50 -3 4 1 11 7 14 9 3
6 11 -11 25 -37 33 -46 26 -49 -34z"/>
<path d="M1867 472 c3 -14 16 -21 39 -24 31 -4 35 -1 32 16 -2 16 -12 22 -40
24 -32 3 -36 1 -31 -16z"/>
<path d="M1982 473 c2 -12 12 -18 28 -18 16 0 26 6 28 18 3 13 -3 17 -28 17
-25 0 -31 -4 -28 -17z"/>
<path d="M2086 475 c-7 -20 23 -33 34 -14 5 7 6 17 4 21 -9 13 -32 9 -38 -7z"/>
<path d="M1911 433 c0 -7 -14 -13 -31 -13 -20 0 -30 -5 -30 -15 0 -19 20 -28
52 -23 20 3 23 7 17 33 -4 17 -7 24 -8 18z"/>
<path d="M2030 430 c0 -5 -14 -10 -31 -10 -44 0 -37 -34 9 -38 30 -3 32 -1 32
27 0 17 -2 31 -5 31 -3 0 -5 -4 -5 -10z"/>
</g>
</svg>
