{
	"asset":{
		"generator":"Khronos glTF Blender I/O v4.5.48",
		"version":"2.0"
	},
	"scene":0,
	"scenes":[
		{
			"name":"Scene",
			"nodes":[
				0,
				1,
				2,
				3,
				4,
				5,
				6
			]
		}
	],
	"nodes":[
		{
			"mesh":0,
			"name":"Landscape.002_col",
			"rotation":[
				0,
				0,
				-0.5580326914787292,
				0.8298190236091614
			],
			"translation":[
				8.413299560546875,
				3.2884700298309326,
				0
			]
		},
		{
			"mesh":1,
			"name":"Landscape.003_col",
			"rotation":[
				1,
				0,
				0,
				4.371138828673793e-08
			],
			"translation":[
				0,
				11.676084518432617,
				0
			]
		},
		{
			"mesh":2,
			"name":"Landscape.001_col",
			"translation":[
				0,
				0.055696845054626465,
				0
			]
		},
		{
			"mesh":3,
			"name":"Landscape.004_col",
			"rotation":[
				0.4507127106189728,
				-0.5469000339508057,
				-0.47302091121673584,
				0.5234593152999878
			],
			"translation":[
				-0.23036563396453857,
				3.2884700298309326,
				7.303631782531738
			]
		},
		{
			"mesh":4,
			"name":"Landscape.005_col",
			"rotation":[
				-0.48018044233322144,
				0.5321530699729919,
				-0.4430774450302124,
				0.5384443402290344
			],
			"translation":[
				-0.06986607611179352,
				3.2884700298309326,
				-8.152969360351562
			]
		},
		{
			"mesh":5,
			"name":"Landscape.007_col",
			"rotation":[
				0,
				0,
				-0.8011210560798645,
				0.598502516746521
			],
			"scale":[
				10.468560218811035,
				1,
				11.389740943908691
			],
			"translation":[
				-7.880973815917969,
				1.6786402463912964,
				0.29833686351776123
			]
		},
		{
			"mesh":6,
			"name":"Cilindro.001_col",
			"rotation":[
				0,
				0,
				-0.7071068286895752,
				0.7071068286895752
			],
			"scale":[
				1,
				10.663507461547852,
				1
			],
			"translation":[
				20.210569381713867,
				1.2582216262817383,
				0
			]
		}
	],
	"materials":[
		{
			"doubleSided":true,
			"emissiveFactor":[
				0.035831838846206665,
				0.035831838846206665,
				0.035831838846206665
			],
			"name":"Material.001",
			"pbrMetallicRoughness":{
				"baseColorFactor":[
					0,
					0,
					0,
					1
				]
			}
		}
	],
	"meshes":[
		{
			"name":"Landscape.002",
			"primitives":[
				{
					"attributes":{
						"POSITION":0,
						"NORMAL":1,
						"TEXCOORD_0":2
					},
					"indices":3,
					"material":0
				}
			]
		},
		{
			"name":"Landscape.003",
			"primitives":[
				{
					"attributes":{
						"POSITION":4,
						"NORMAL":5
					},
					"indices":6,
					"material":0
				}
			]
		},
		{
			"name":"Landscape.001",
			"primitives":[
				{
					"attributes":{
						"POSITION":7,
						"NORMAL":8
					},
					"indices":9,
					"material":0
				}
			]
		},
		{
			"name":"Landscape.004",
			"primitives":[
				{
					"attributes":{
						"POSITION":10,
						"NORMAL":11
					},
					"indices":12,
					"material":0
				}
			]
		},
		{
			"name":"Landscape.005",
			"primitives":[
				{
					"attributes":{
						"POSITION":13,
						"NORMAL":14
					},
					"indices":12,
					"material":0
				}
			]
		},
		{
			"name":"Landscape.007",
			"primitives":[
				{
					"attributes":{
						"POSITION":15,
						"NORMAL":16
					},
					"indices":17,
					"material":0
				}
			]
		},
		{
			"name":"Cilindro.001",
			"primitives":[
				{
					"attributes":{
						"POSITION":18,
						"NORMAL":19,
						"TEXCOORD_0":20
					},
					"indices":21,
					"material":0
				}
			]
		}
	],
	"accessors":[
		{
			"bufferView":0,
			"componentType":5126,
			"count":4080,
			"max":[
				10.014540672302246,
				1.425416111946106,
				10.00833511352539
			],
			"min":[
				-10.031184196472168,
				-0.5713359713554382,
				-10.012434959411621
			],
			"type":"VEC3"
		},
		{
			"bufferView":1,
			"componentType":5126,
			"count":4080,
			"type":"VEC3"
		},
		{
			"bufferView":2,
			"componentType":5126,
			"count":4080,
			"type":"VEC2"
		},
		{
			"bufferView":3,
			"componentType":5123,
			"count":4170,
			"type":"SCALAR"
		},
		{
			"bufferView":4,
			"componentType":5126,
			"count":1534,
			"max":[
				9.999662399291992,
				3.0344135761260986,
				10.034622192382812
			],
			"min":[
				-10.020284652709961,
				-0.08192993700504303,
				-9.997450828552246
			],
			"type":"VEC3"
		},
		{
			"bufferView":5,
			"componentType":5126,
			"count":1534,
			"type":"VEC3"
		},
		{
			"bufferView":6,
			"componentType":5123,
			"count":1542,
			"type":"SCALAR"
		},
		{
			"bufferView":7,
			"componentType":5126,
			"count":4038,
			"max":[
				10.060100555419922,
				1.425416111946106,
				10.00833511352539
			],
			"min":[
				-10.031184196472168,
				-0.1339488923549652,
				-10.012434959411621
			],
			"type":"VEC3"
		},
		{
			"bufferView":8,
			"componentType":5126,
			"count":4038,
			"type":"VEC3"
		},
		{
			"bufferView":9,
			"componentType":5123,
			"count":4044,
			"type":"SCALAR"
		},
		{
			"bufferView":10,
			"componentType":5126,
			"count":4038,
			"max":[
				10.014540672302246,
				1.425416111946106,
				10.00833511352539
			],
			"min":[
				-10.031184196472168,
				-0.4413967728614807,
				-10.012434959411621
			],
			"type":"VEC3"
		},
		{
			"bufferView":11,
			"componentType":5126,
			"count":4038,
			"type":"VEC3"
		},
		{
			"bufferView":12,
			"componentType":5123,
			"count":4044,
			"type":"SCALAR"
		},
		{
			"bufferView":13,
			"componentType":5126,
			"count":4038,
			"max":[
				10.014540672302246,
				1.425416111946106,
				10.00833511352539
			],
			"min":[
				-10.031184196472168,
				-0.4413967728614807,
				-10.012434959411621
			],
			"type":"VEC3"
		},
		{
			"bufferView":14,
			"componentType":5126,
			"count":4038,
			"type":"VEC3"
		},
		{
			"bufferView":15,
			"componentType":5126,
			"count":822,
			"max":[
				1.0059928894042969,
				1.8618755340576172,
				1.011325716972351
			],
			"min":[
				-1.0143345594406128,
				-0.26697930693626404,
				-1.0122654438018799
			],
			"type":"VEC3"
		},
		{
			"bufferView":16,
			"componentType":5126,
			"count":822,
			"type":"VEC3"
		},
		{
			"bufferView":17,
			"componentType":5123,
			"count":822,
			"type":"SCALAR"
		},
		{
			"bufferView":18,
			"componentType":5126,
			"count":1219,
			"max":[
				1.0242691040039062,
				1.0231436491012573,
				1.646955966949463
			],
			"min":[
				-1.0748682022094727,
				-1.0014677047729492,
				-1.582535982131958
			],
			"type":"VEC3"
		},
		{
			"bufferView":19,
			"componentType":5126,
			"count":1219,
			"type":"VEC3"
		},
		{
			"bufferView":20,
			"componentType":5126,
			"count":1219,
			"type":"VEC2"
		},
		{
			"bufferView":21,
			"componentType":5123,
			"count":1281,
			"type":"SCALAR"
		}
	],
	"bufferViews":[
		{
			"buffer":0,
			"byteLength":48960,
			"byteOffset":0,
			"target":34962
		},
		{
			"buffer":0,
			"byteLength":48960,
			"byteOffset":48960,
			"target":34962
		},
		{
			"buffer":0,
			"byteLength":32640,
			"byteOffset":97920,
			"target":34962
		},
		{
			"buffer":0,
			"byteLength":8340,
			"byteOffset":130560,
			"target":34963
		},
		{
			"buffer":0,
			"byteLength":18408,
			"byteOffset":138900,
			"target":34962
		},
		{
			"buffer":0,
			"byteLength":18408,
			"byteOffset":157308,
			"target":34962
		},
		{
			"buffer":0,
			"byteLength":3084,
			"byteOffset":175716,
			"target":34963
		},
		{
			"buffer":0,
			"byteLength":48456,
			"byteOffset":178800,
			"target":34962
		},
		{
			"buffer":0,
			"byteLength":48456,
			"byteOffset":227256,
			"target":34962
		},
		{
			"buffer":0,
			"byteLength":8088,
			"byteOffset":275712,
			"target":34963
		},
		{
			"buffer":0,
			"byteLength":48456,
			"byteOffset":283800,
			"target":34962
		},
		{
			"buffer":0,
			"byteLength":48456,
			"byteOffset":332256,
			"target":34962
		},
		{
			"buffer":0,
			"byteLength":8088,
			"byteOffset":380712,
			"target":34963
		},
		{
			"buffer":0,
			"byteLength":48456,
			"byteOffset":388800,
			"target":34962
		},
		{
			"buffer":0,
			"byteLength":48456,
			"byteOffset":437256,
			"target":34962
		},
		{
			"buffer":0,
			"byteLength":9864,
			"byteOffset":485712,
			"target":34962
		},
		{
			"buffer":0,
			"byteLength":9864,
			"byteOffset":495576,
			"target":34962
		},
		{
			"buffer":0,
			"byteLength":1644,
			"byteOffset":505440,
			"target":34963
		},
		{
			"buffer":0,
			"byteLength":14628,
			"byteOffset":507084,
			"target":34962
		},
		{
			"buffer":0,
			"byteLength":14628,
			"byteOffset":521712,
			"target":34962
		},
		{
			"buffer":0,
			"byteLength":9752,
			"byteOffset":536340,
			"target":34962
		},
		{
			"buffer":0,
			"byteLength":2562,
			"byteOffset":546092,
			"target":34963
		}
	],
	"buffers":[
		{
			"byteLength":548656,
			"uri":"escena-cueva.bin"
		}
	]
}
