{
	"asset":{
		"generator":"Khronos glTF Blender I/O v4.5.48",
		"version":"2.0"
	},
	"scene":0,
	"scenes":[
		{
			"name":"Scene",
			"nodes":[
				0,
				1,
				2
			]
		}
	],
	"nodes":[
		{
			"mesh":0,
			"name":"Cubo_col",
			"scale":[
				2,
				2,
				2
			],
			"translation":[
				0,
				-0.6724552512168884,
				0
			]
		},
		{
			"mesh":1,
			"name":"Cubo.001_col",
			"scale":[
				10,
				10,
				10
			],
			"translation":[
				1.4693247079849243,
				7.152377605438232,
				9.172404289245605
			]
		},
		{
			"mesh":2,
			"name":"Cubo.002_col",
			"rotation":[
				0,
				-0.9992125630378723,
				0,
				0.039676930755376816
			],
			"scale":[
				10.000000953674316,
				10,
				10.000000953674316
			],
			"translation":[
				-11.407516479492188,
				11.604203224182129,
				-160.25863647460938
			]
		}
	],
	"materials":[
		{
			"doubleSided":true,
			"emissiveFactor":[
				0.03505011679339454,
				0.03505011679339454,
				0.03505011679339454
			],
			"name":"Material.001",
			"pbrMetallicRoughness":{
				"baseColorFactor":[
					0,
					0,
					0,
					1
				]
			}
		}
	],
	"meshes":[
		{
			"name":"Cubo",
			"primitives":[
				{
					"attributes":{
						"POSITION":0,
						"NORMAL":1,
						"TEXCOORD_0":2
					},
					"indices":3,
					"material":0
				}
			]
		},
		{
			"name":"Cubo.001",
			"primitives":[
				{
					"attributes":{
						"POSITION":4,
						"NORMAL":5,
						"TEXCOORD_0":6
					},
					"indices":7
				}
			]
		},
		{
			"name":"Cubo.002",
			"primitives":[
				{
					"attributes":{
						"POSITION":8,
						"NORMAL":9,
						"TEXCOORD_0":10
					},
					"indices":7
				}
			]
		}
	],
	"accessors":[
		{
			"bufferView":0,
			"componentType":5126,
			"count":654,
			"max":[
				4.956564426422119,
				5.295070171356201,
				1.0174837112426758
			],
			"min":[
				-28.950641632080078,
				-1.8602278232574463,
				-76.66217803955078
			],
			"type":"VEC3"
		},
		{
			"bufferView":1,
			"componentType":5126,
			"count":654,
			"type":"VEC3"
		},
		{
			"bufferView":2,
			"componentType":5126,
			"count":654,
			"type":"VEC2"
		},
		{
			"bufferView":3,
			"componentType":5123,
			"count":1044,
			"type":"SCALAR"
		},
		{
			"bufferView":4,
			"componentType":5126,
			"count":20,
			"max":[
				1,
				1,
				1
			],
			"min":[
				-1,
				-1,
				-1
			],
			"type":"VEC3"
		},
		{
			"bufferView":5,
			"componentType":5126,
			"count":20,
			"type":"VEC3"
		},
		{
			"bufferView":6,
			"componentType":5126,
			"count":20,
			"type":"VEC2"
		},
		{
			"bufferView":7,
			"componentType":5123,
			"count":30,
			"type":"SCALAR"
		},
		{
			"bufferView":8,
			"componentType":5126,
			"count":20,
			"max":[
				1,
				1,
				1
			],
			"min":[
				-1,
				-1,
				-1
			],
			"type":"VEC3"
		},
		{
			"bufferView":9,
			"componentType":5126,
			"count":20,
			"type":"VEC3"
		},
		{
			"bufferView":10,
			"componentType":5126,
			"count":20,
			"type":"VEC2"
		}
	],
	"bufferViews":[
		{
			"buffer":0,
			"byteLength":7848,
			"byteOffset":0,
			"target":34962
		},
		{
			"buffer":0,
			"byteLength":7848,
			"byteOffset":7848,
			"target":34962
		},
		{
			"buffer":0,
			"byteLength":5232,
			"byteOffset":15696,
			"target":34962
		},
		{
			"buffer":0,
			"byteLength":2088,
			"byteOffset":20928,
			"target":34963
		},
		{
			"buffer":0,
			"byteLength":240,
			"byteOffset":23016,
			"target":34962
		},
		{
			"buffer":0,
			"byteLength":240,
			"byteOffset":23256,
			"target":34962
		},
		{
			"buffer":0,
			"byteLength":160,
			"byteOffset":23496,
			"target":34962
		},
		{
			"buffer":0,
			"byteLength":60,
			"byteOffset":23656,
			"target":34963
		},
		{
			"buffer":0,
			"byteLength":240,
			"byteOffset":23716,
			"target":34962
		},
		{
			"buffer":0,
			"byteLength":240,
			"byteOffset":23956,
			"target":34962
		},
		{
			"buffer":0,
			"byteLength":160,
			"byteOffset":24196,
			"target":34962
		}
	],
	"buffers":[
		{
			"byteLength":24356,
			"uri":"nuevo_mapa.bin"
		}
	]
}
